# File created by Blade
# Date/Time:  Thu Jan 22 19:49:10 2015
#---------------------------------------------------------
:version 1.10
:name HOM
:units
  mass 1.0
  length 1.000000
  angle deg
:documentation
     Acclaim Skeleton File
:root
   axis xyz
   order TX TY TZ RX RY RZ
   position 0.000000 0.000000 0.000000
   orientation 0 0 0
:bonedata
   begin
      id 1
      name RightUpLeg_dum
      direction -1.000000 0.000000 0.000000
      length 4.478084
      axis 0.0 0.0 0.0 xyz
   end
   begin
      id 2
      name LeftUpLeg_dum
      direction 1.000000 0.000000 0.000000
      length 4.478084
      axis 0.0 0.0 0.0 xyz
   end
   begin
      id 3
      name Spine_dum
      direction 0.000000 1.000000 0.000000
      length 6.068208
      axis 0.0 0.0 0.0 xyz
   end
   begin
      id 4
      name RightUpLeg
      direction 0.000000 -1.000000 0.000000
      length 16.405774
      axis 0.0 0.0 0.0 xyz
      dof rx ry rz
   end
   begin
      id 5
      name RightLeg
      direction 0.000000 -1.000000 0.000000
      length 14.644143
      axis 0.0 0.0 0.0 xyz
      dof rx ry rz
   end
   begin
      id 6
      name RightFoot
      direction 0.000000 -0.258819 0.965926
      length 5.806150
      axis 15.0 0.0 0.0 xyz
      dof rx ry rz
   end
   begin
      id 7
      name RightToeBase
      direction 0.000000 0.000000 1.000000
      length 2.952750
      axis 0.0 0.0 0.0 xyz
      dof rx ry rz
   end
   begin
      id 8
      name LeftUpLeg
      direction 0.000000 -1.000000 0.000000
      length 16.405774
      axis 0.0 0.0 0.0 xyz
      dof rx ry rz
   end
   begin
      id 9
      name LeftLeg
      direction 0.000000 -1.000000 0.000000
      length 14.644143
      axis 0.0 0.0 0.0 xyz
      dof rx ry rz
   end
   begin
      id 10
      name LeftFoot
      direction 0.000000 -0.258819 0.965926
      length 5.806150
      axis 15.0 0.0 0.0 xyz
      dof rx ry rz
   end
   begin
      id 11
      name LeftToeBase
      direction 0.000000 0.000000 1.000000
      length 2.952750
      axis 0.0 0.0 0.0 xyz
      dof rx ry rz
   end
   begin
      id 12
      name Spine
      direction 0.000000 1.000000 0.000000
      length 0.000000
      axis 0.0 0.0 0.0 xyz
      dof rx ry rz
   end
   begin
      id 13
      name Spine_dum1
      direction 0.000000 1.000000 0.000000
      length 10.013923
      axis 0.0 0.0 0.0 xyz
   end
   begin
      id 14
      name Spine_dum2
      direction 0.000000 1.000000 0.000000
      length 10.013923
      axis 0.0 0.0 0.0 xyz
   end
   begin
      id 15
      name Spine_dum3
      direction 0.000000 1.000000 0.000000
      length 15.777476
      axis 0.0 0.0 0.0 xyz
   end
   begin
      id 16
      name RightShoulder
      direction -1.000000 0.000000 0.000000
      length 7.190220
      axis 0.0 0.0 90.0 xyz
      dof rx ry rz
   end
   begin
      id 17
      name RightArm
      direction -1.000000 0.000000 0.000000
      length 10.177469
      axis 0.0 0.0 90.0 xyz
      dof rx ry rz
   end
   begin
      id 18
      name RightForeArm
      direction -1.000000 0.000000 0.000000
      length 8.392114
      axis 0.0 0.0 90.0 xyz
      dof ry rz rx
   end
   begin
      id 19
      name RightHand
      direction -1.000000 0.000000 0.000000
      length 0.000000
      axis 0.0 0.0 90.0 xyz
      dof rx ry rz
   end
   begin
      id 20
      name RightHand_dum1
      direction -1.000000 0.000000 0.000000
      length 3.937000
      axis 0.0 0.0 90.0 xyz
   end
   begin
      id 21
      name RightHand_dum2
      direction 0.000000 0.000000 0.000000
      length 0.000000
      axis 0.0 0.0 90.0 xyz
   end
   begin
      id 22
      name RightHandThumb1
      direction 0.000000 0.000000 1.000000
      length 3.937000
      axis 0.0 0.0 90.0 xyz
      dof rx rz ry
   end
   begin
      id 23
      name LeftShoulder
      direction 1.000000 0.000000 0.000000
      length 7.190220
      axis 0.0 0.0 -90.0 xyz
      dof rx ry rz
   end
   begin
      id 24
      name LeftArm
      direction 1.000000 0.000000 0.000000
      length 10.177469
      axis 0.0 0.0 -90.0 xyz
      dof rx ry rz
   end
   begin
      id 25
      name LeftForeArm
      direction 1.000000 0.000000 0.000000
      length 8.392114
      axis 0.0 0.0 -90.0 xyz
      dof ry rz rx
   end
   begin
      id 26
      name LeftHand
      direction 1.000000 0.000000 0.000000
      length 0.000000
      axis 0.0 0.0 -90.0 xyz
      dof rx ry rz
   end
   begin
      id 27
      name LeftHand_dum1
      direction 1.000000 0.000000 0.000000
      length 3.937000
      axis 0.0 0.0 -90.0 xyz
   end
   begin
      id 28
      name LeftHand_dum2
      direction 0.000000 0.000000 0.000000
      length 0.000000
      axis 0.0 0.0 -90.0 xyz
   end
   begin
      id 29
      name LeftHandThumb1
      direction 0.000000 0.000000 1.000000
      length 3.937000
      axis 0.0 0.0 -90.0 xyz
      dof rx rz ry
   end
   begin
      id 30
      name Head
      direction 0.000000 1.000000 0.000000
      length 4.527550
      axis 0.0 0.0 0.0 xyz
      dof rx ry rz
   end
:hierarchy
   begin
      root RightUpLeg_dum LeftUpLeg_dum Spine_dum
      RightUpLeg_dum RightUpLeg
      LeftUpLeg_dum LeftUpLeg
      Spine_dum Spine
      RightUpLeg RightLeg
      RightLeg RightFoot
      RightFoot RightToeBase
      LeftUpLeg LeftLeg
      LeftLeg LeftFoot
      LeftFoot LeftToeBase
      Spine Spine_dum1 Spine_dum2 Spine_dum3
      Spine_dum1 RightShoulder
      Spine_dum2 LeftShoulder
      Spine_dum3 Head
      RightShoulder RightArm
      RightArm RightForeArm
      RightForeArm RightHand
      RightHand RightHand_dum1 RightHand_dum2
      RightHand_dum2 RightHandThumb1
      LeftShoulder LeftArm
      LeftArm LeftForeArm
      LeftForeArm LeftHand
      LeftHand LeftHand_dum1 LeftHand_dum2
      LeftHand_dum2 LeftHandThumb1
   end

# File created by Blade
# Date/Time:  Thu Jan 22 19:49:01 2015
# Frame Rate: 120.000 fps
#------------------------------------------------------
:FULLY-SPECIFIED
:DEGREES
602
root -2.169173 7.692525 -5.471669 14.709037 -3.442663 0.907265
RightUpLeg -126.984601 -22.775166 -2.113121
RightLeg 150.367977 -0.000000 -0.000000
RightFoot -34.674552 -3.445292 2.757601
RightToeBase -5.717945 -0.000000 0.000000
LeftUpLeg -120.534252 45.072847 10.581776
LeftLeg 147.802635 -0.000000 -0.000000
LeftFoot -28.694342 -16.040081 -14.222370
LeftToeBase 2.314188 -0.000000 -0.000000
Spine 30.595608 -5.042595 -8.543324
RightShoulder -9.513388 13.704392 -31.756877
RightArm 52.397354 8.846870 36.617917
RightForeArm -0.970229 0.000000 27.242618
RightHand 14.260063 -0.000000 -3.433784
RightHandThumb1 -24.326973 -0.000000 -32.862282
LeftShoulder 0.216134 -23.035351 25.655393
LeftArm 55.655728 23.615830 -60.121058
LeftForeArm 35.505757 -0.000000 6.396587
LeftHand -9.866325 -0.000000 -6.475522
LeftHandThumb1 -26.253704 0.000000 33.147579
Head -44.366031 5.695035 8.498992
603
root -2.174344 7.693048 -5.457368 14.632481 -3.428642 0.857133
RightUpLeg -126.762823 -22.665866 -2.252923
RightLeg 150.401499 -0.000000 -0.000000
RightFoot -34.770434 -3.463928 2.947575
RightToeBase -5.695884 -0.000000 0.000000
LeftUpLeg -120.394638 45.135256 10.717703
LeftLeg 147.820794 -0.000000 -0.000000
LeftFoot -28.718760 -16.065000 -14.213588
LeftToeBase 2.239379 -0.000000 -0.000000
Spine 30.499055 -5.271144 -8.536281
RightShoulder -9.907124 12.748843 -31.332402
RightArm 50.983413 9.317268 36.607520
RightForeArm -0.262937 -0.000000 28.796456
RightHand 14.516928 -0.000000 -5.443865
RightHandThumb1 -24.326973 -0.000000 -32.862282
LeftShoulder 0.348974 -23.057414 25.622483
LeftArm 55.469490 23.617490 -59.883911
LeftForeArm 35.419113 -0.000000 6.384033
LeftHand -9.858288 -0.000000 -6.885789
LeftHandThumb1 -26.253704 0.000000 33.147579
Head -43.983642 5.885181 8.569522
604
root -2.177206 7.693896 -5.441912 14.568166 -3.423854 0.798205
RightUpLeg -126.542609 -22.574408 -2.407534
RightLeg 150.434011 -0.000000 -0.000000
RightFoot -34.860355 -3.426520 3.118278
RightToeBase -5.750763 -0.000000 0.000000
LeftUpLeg -120.280005 45.215509 10.839028
LeftLeg 147.848989 -0.000000 -0.000000
LeftFoot -28.743766 -16.087284 -14.176781
LeftToeBase 2.256161 -0.000000 -0.000000
Spine 30.402771 -5.538786 -8.528409
RightShoulder -10.268111 11.844225 -30.793612
RightArm 49.616310 9.731370 36.701462
RightForeArm 0.402602 -0.000000 30.347097
RightHand 15.027307 -0.000000 -7.382611
RightHandThumb1 -24.326973 -0.000000 -32.862282
LeftShoulder 0.405293 -22.984508 25.602273
LeftArm 55.352642 23.598185 -59.621478
LeftForeArm 35.478755 -0.000000 6.425121
LeftHand -9.866013 0.000000 -7.443190
LeftHandThumb1 -26.253704 0.000000 33.147579
Head -43.628494 6.147047 8.601524
605
root -2.177557 7.692700 -5.425560 14.487257 -3.415144 0.754826
RightUpLeg -126.346397 -22.475882 -2.531567
RightLeg 150.466263 -0.000000 -0.000000
RightFoot -34.942607 -3.569726 3.242912
RightToeBase -5.665169 -0.000000 0.000000
LeftUpLeg -120.149209 45.274085 10.964989
LeftLeg 147.887588 -0.000000 -0.000000
LeftFoot -28.766504 -16.092496 -14.127884
LeftToeBase 2.211008 -0.000000 -0.000000
Spine 30.321582 -5.784994 -8.509226
RightShoulder -10.562791 10.913324 -30.218600
RightArm 48.089256 10.170010 36.959369
RightForeArm 1.038154 0.000000 32.170182
RightHand 15.452561 -0.000000 -9.384680
RightHandThumb1 -24.326973 -0.000000 -32.862282
LeftShoulder 0.511592 -22.947734 25.550002
LeftArm 55.180468 23.527464 -59.436648
LeftForeArm 35.521162 0.000000 6.409581
LeftHand -9.616390 -0.000000 -7.917058
LeftHandThumb1 -26.253704 0.000000 33.147579
Head -43.297180 6.387667 8.599245
606
root -2.179402 7.688951 -5.408985 14.438231 -3.429347 0.678061
RightUpLeg -126.168586 -22.347495 -2.647116
RightLeg 150.514533 -0.000000 -0.000000
RightFoot -35.058438 -3.515677 3.507164
RightToeBase -5.501348 -0.000000 0.000000
LeftUpLeg -120.077317 45.378150 11.065614
LeftLeg 147.934825 -0.000000 -0.000000
LeftFoot -28.818256 -16.097715 -14.132325
LeftToeBase 2.352054 -0.000000 -0.000000
Spine 30.212079 -5.981399 -8.423427
RightShoulder -10.868719 10.018147 -29.561329
RightArm 46.543760 10.600013 37.377971
RightForeArm 1.581195 -0.000000 34.044582
RightHand 15.613404 -0.000000 -11.424930
RightHandThumb1 -24.326973 -0.000000 -32.862282
LeftShoulder 0.580296 -22.851384 25.503000
LeftArm 55.177236 23.523370 -59.119354
LeftForeArm 35.286656 0.000000 6.409234
LeftHand -9.885068 -0.000000 -8.456843
LeftHandThumb1 -26.253704 0.000000 33.147579
Head -43.050673 6.603154 8.546926
607
root -2.182234 7.685540 -5.391295 14.352049 -3.472376 0.597928
RightUpLeg -125.991535 -22.197575 -2.727632
RightLeg 150.558558 -0.000000 -0.000000
RightFoot -35.103926 -3.559941 3.648546
RightToeBase -5.466814 -0.000000 0.000000
LeftUpLeg -119.913137 45.520565 11.256879
LeftLeg 147.983390 -0.000000 -0.000000
LeftFoot -28.815942 -16.112237 -14.137973
LeftToeBase 1.843993 -0.000000 -0.000000
Spine 30.144003 -6.159113 -8.338999
RightShoulder -11.100790 9.201681 -28.876732
RightArm 44.878057 10.941122 37.916544
RightForeArm 2.100953 -0.000000 36.064513
RightHand 15.556984 -0.000000 -13.840368
RightHandThumb1 -24.326973 -0.000000 -32.862282
LeftShoulder 0.687646 -22.796349 25.383976
LeftArm 55.111090 23.540798 -58.727663
LeftForeArm 35.407287 -0.000000 6.485838
LeftHand -9.906903 0.000000 -9.144320
LeftHandThumb1 -26.253704 0.000000 33.147579
Head -42.809072 6.782945 8.487236
608
root -2.184476 7.679353 -5.373587 14.297918 -3.525662 0.532909
RightUpLeg -125.863297 -22.037805 -2.808377
RightLeg 150.612023 -0.000000 -0.000000
RightFoot -35.176771 -3.666379 3.795360
RightToeBase -5.363454 -0.000000 0.000000
LeftUpLeg -119.788462 45.682736 11.412336
LeftLeg 148.036210 -0.000000 -0.000000
LeftFoot -28.833678 -16.165241 -14.105503
LeftToeBase 1.848949 -0.000000 -0.000000
Spine 30.041538 -6.327307 -8.251906
RightShoulder -11.318539 8.332853 -28.237544
RightArm 43.202622 11.259345 38.730215
RightForeArm 2.729278 -0.000000 38.127218
RightHand 15.507711 0.000000 -16.070293
RightHandThumb1 -24.326973 -0.000000 -32.862282
LeftShoulder 0.743207 -22.670823 25.255045
LeftArm 55.208920 23.624827 -58.130863
LeftForeArm 35.041622 -0.000000 6.537041
LeftHand -9.797723 0.000000 -9.676754
LeftHandThumb1 -26.253704 0.000000 33.147579
Head -42.589706 6.985708 8.386711
609
root -2.170002 7.667461 -5.360185 14.262681 -3.458720 0.509423
RightUpLeg -125.790993 -22.112564 -2.916543
RightLeg 150.671919 -0.000000 -0.000000
RightFoot -35.197368 -3.682816 3.888489
RightToeBase -5.226548 -0.000000 0.000000
LeftUpLeg -119.846886 45.658730 11.399776
LeftLeg 148.112964 -0.000000 -0.000000
LeftFoot -28.857960 -16.166962 -14.073137
LeftToeBase 1.792241 -0.000000 -0.000000
Spine 29.951851 -6.845079 -8.155717
RightShoulder -11.362754 7.715680 -27.651920
RightArm 41.471596 11.532664 39.697744
RightForeArm 3.406636 -0.000000 40.111804
RightHand 15.890108 -0.000000 -18.044760
RightHandThumb1 -24.326973 -0.000000 -32.862282
LeftShoulder 0.639474 -22.610602 25.158212
LeftArm 55.027412 23.678387 -57.808817
LeftForeArm 35.133116 -0.000000 6.668182
LeftHand -9.682804 -0.000000 -10.117587
LeftHandThumb1 -26.253704 0.000000 33.147579
Head -42.374345 7.256665 8.065655
610
root -2.173820 7.660481 -5.346597 14.188903 -3.568919 0.460019
RightUpLeg -125.679761 -21.867830 -3.012401
RightLeg 150.713656 -0.000000 -0.000000
RightFoot -35.249753 -3.828452 4.021015
RightToeBase -5.140114 -0.000000 0.000000
LeftUpLeg -119.629033 45.866456 11.639868
LeftLeg 148.159494 -0.000000 -0.000000
LeftFoot -28.829809 -16.243376 -14.008946
LeftToeBase 1.579816 -0.000000 -0.000000
Spine 29.892872 -7.076068 -8.144067
RightShoulder -11.416315 7.133695 -26.914400
RightArm 39.684166 11.728214 40.740926
RightForeArm 4.144678 -0.000000 42.217203
RightHand 15.685942 0.000000 -19.781420
RightHandThumb1 -24.326973 -0.000000 -32.862282
LeftShoulder 0.581792 -22.528862 25.147705
LeftArm 54.919071 23.730877 -57.392566
LeftForeArm 35.131244 0.000000 6.788772
LeftHand -9.560961 -0.000000 -10.670421
LeftHandThumb1 -26.253704 0.000000 33.147579
Head -42.189754 7.549206 7.889927
611
root -2.175073 7.652581 -5.333472 14.090448 -3.669322 0.396271
RightUpLeg -125.558576 -21.664637 -3.087352
RightLeg 150.747070 -0.000000 -0.000000
RightFoot -35.281167 -3.925116 4.144833
RightToeBase -5.050782 -0.000000 0.000000
LeftUpLeg -119.438552 46.028309 11.849068
LeftLeg 148.216544 -0.000000 -0.000000
LeftFoot -28.837802 -16.265087 -14.035279
LeftToeBase 1.547974 -0.000000 -0.000000
Spine 29.881940 -7.300638 -8.066470
RightShoulder -11.509706 6.487602 -26.193829
RightArm 38.024621 11.723099 41.730359
RightForeArm 4.841606 0.000000 44.136220
RightHand 15.396456 -0.000000 -22.494445
RightHandThumb1 -24.326973 -0.000000 -32.862282
LeftShoulder 0.556764 -22.457930 25.070837
LeftArm 54.865659 23.786360 -56.910025
LeftForeArm 34.955702 -0.000000 6.895369
LeftHand -9.543747 -0.000000 -11.070538
LeftHandThumb1 -26.253704 0.000000 33.147579
Head -42.064324 7.785970 7.608788
612
root -2.172405 7.644876 -5.321795 14.035805 -3.730905 0.372009
RightUpLeg -125.490489 -21.533568 -3.164830
RightLeg 150.782664 -0.000000 -0.000000
RightFoot -35.308943 -4.019218 4.251668
RightToeBase -4.945921 -0.000000 0.000000
LeftUpLeg -119.332814 46.126894 11.955048
LeftLeg 148.270836 -0.000000 -0.000000
LeftFoot -28.862303 -16.273384 -14.024216
LeftToeBase 1.526515 -0.000000 -0.000000
Spine 29.833638 -7.611475 -7.960397
RightShoulder -11.747017 5.655034 -25.444108
RightArm 36.822137 11.744402 42.978942
RightForeArm 5.480938 -0.000000 45.700594
RightHand 15.478232 -0.000000 -25.106899
RightHandThumb1 -24.326973 -0.000000 -32.862282
LeftShoulder 0.483248 -22.373905 24.981381
LeftArm 54.751105 23.817240 -56.500759
LeftForeArm 34.878908 0.000000 7.061389
LeftHand -9.484571 0.000000 -11.834914
LeftHandThumb1 -26.253704 0.000000 33.147579
Head -41.985888 8.027366 7.176027
